<?xml version="1.0" encoding="UTF-8" standalone="no"?>
<svg
   xmlns:dc="http://purl.org/dc/elements/1.1/"
   xmlns:cc="http://creativecommons.org/ns#"
   xmlns:rdf="http://www.w3.org/1999/02/22-rdf-syntax-ns#"
   xmlns:svg="http://www.w3.org/2000/svg"
   xmlns="http://www.w3.org/2000/svg"
   xmlns:sodipodi="http://sodipodi.sourceforge.net/DTD/sodipodi-0.dtd"
   xmlns:inkscape="http://www.inkscape.org/namespaces/inkscape"
   width="210mm"
   height="297mm"
   viewBox="0 0 210 297"
   version="1.1"
   id="svg8"
   inkscape:version="1.0.1 (3bc2e813f5, 2020-09-07)"
   sodipodi:docname="绘图.svg">
  <defs
     id="defs2" />
  <sodipodi:namedview
     id="base"
     pagecolor="#ffffff"
     bordercolor="#666666"
     borderopacity="1.0"
     inkscape:pageopacity="0.0"
     inkscape:pageshadow="2"
     inkscape:zoom="0.35"
     inkscape:cx="400"
     inkscape:cy="560"
     inkscape:document-units="mm"
     inkscape:current-layer="layer1"
     inkscape:document-rotation="0"
     showgrid="false"
     inkscape:window-width="1301"
     inkscape:window-height="860"
     inkscape:window-x="123"
     inkscape:window-y="0"
     inkscape:window-maximized="0" />
  <metadata
     id="metadata5">
    <rdf:RDF>
      <cc:Work
         rdf:about="">
        <dc:format>image/svg+xml</dc:format>
        <dc:type
           rdf:resource="http://purl.org/dc/dcmitype/StillImage" />
        <dc:title></dc:title>
      </cc:Work>
    </rdf:RDF>
  </metadata>
  <g
     inkscape:label="图层 1"
     inkscape:groupmode="layer"
     id="layer1">
    <path
       style="fill:#000000;fill-opacity:1;fill-rule:nonzero;stroke:none;stroke-width:0.264583"
       id="path12"
       d="m 49.841514,103.0537 c 1.162548,2.15652 2.336549,4.30915 3.46468,6.48434 1.275886,2.30297 2.468602,4.65865 3.463258,7.09764 0.83507,2.1036 1.87489,4.11205 2.947024,6.1021 1.375124,3.08238 3.142988,5.96074 4.80083,8.89521 1.280991,1.7883 2.16711,3.99433 3.810043,5.51262 0.888163,0.82078 1.406786,0.97496 2.461548,1.47737 2.171298,0.68284 4.802965,0.9634 6.892202,-0.1954 3.574849,-1.98279 7.080359,-4.08809 10.620537,-6.13214 2.291328,-2.15951 3.806806,-4.91965 5.45135,-7.56565 1.911996,-3.0101 2.846777,-6.36802 3.69175,-9.78625 1.019347,-3.59531 0.870289,-7.29768 0.768244,-10.98818 -0.157406,-2.85045 -1.025424,-5.597174 -2.29516,-8.137711 -3.171245,-6.047184 -3.128949,-2.11859 -11.558076,3.39661 1.40277,3.095101 2.27593,6.415851 3.347566,9.638951 2.239941,5.80293 4.930047,11.42901 7.838564,16.92439 1.598806,3.07734 4.170352,5.37982 7.035846,7.2495 2.43971,1.54342 5.17015,2.15792 8.00376,2.39204 3.43235,0.24588 6.84347,0.1723 10.2424,-0.3475 1.93805,-0.40552 3.80878,-1.14493 5.5133,-2.15511 10.83336,-6.42036 7.7965,-3.32931 11.64396,-7.53829 1.74042,-2.14951 3.45506,-4.43651 4.56756,-6.9912 0.63294,-1.45345 0.85374,-2.4965 1.26242,-4.01665 0.81309,-3.36912 1.11366,-6.82593 0.6587,-10.26221 -0.44573,-2.47067 -1.94953,-4.221906 -3.7478,-5.847913 -1.65156,-1.403522 -3.34176,-2.7587 -5.01802,-4.132096 -1.36325,-1.131724 -2.83691,-2.006142 -4.44646,-2.729492 -0.31825,-0.133011 -0.63649,-0.266025 -0.95473,-0.399039 0,0 -9.25093,6.190331 -9.25093,6.190331 v 0 c 0.30666,0.120889 0.61333,0.241779 0.91999,0.36267 1.51862,0.712592 2.98966,1.434873 4.30779,2.491819 1.68827,1.33203 3.33923,2.70764 4.99737,4.079 1.62958,1.42786 3.01928,2.90301 3.42539,5.12174 0.41957,3.28624 0.0237,6.6 -0.75331,9.81076 -1.2115,4.03153 -3.15108,7.51512 -6.13579,10.52816 -3.59298,3.21892 -1.64793,1.31844 7.11992,-3.59786 0.41897,-0.23493 -0.83117,0.48191 -1.25172,0.71403 -1.29523,0.71492 -2.62658,1.35199 -4.05615,1.75633 -0.48221,0.0838 -2.70741,0.47766 -3.18174,0.53195 -2.28894,0.26196 -4.59949,0.0575 -6.89379,0.0161 -2.68431,-0.17739 -5.33568,-0.55794 -7.70413,-1.9399 -2.75657,-1.70589 -5.24368,-3.86282 -6.9012,-6.68632 -3.01772,-5.35138 -5.881566,-10.84438 -7.828518,-16.68606 -0.953342,-3.25781 -1.679324,-6.586689 -2.849684,-9.773862 -3.253841,1.760937 -6.495646,3.544297 -9.761519,5.282811 -0.04045,0.02154 0.02281,-0.138872 0.06505,-0.121113 0.124536,0.05235 0.199228,0.182501 0.298632,0.273979 0.60838,0.559863 1.054603,1.206975 1.399892,1.966075 1.238634,2.37104 2.023451,4.96551 2.1902,7.64355 0.13798,3.61416 0.06966,7.21099 -0.91915,10.7223 -0.846412,3.33554 -1.940848,6.57304 -3.840945,9.47977 -1.608908,2.59287 -3.197519,5.3075 -5.719527,7.12576 20.193005,-11.43852 8.326718,-4.12131 5.814068,-3.62846 -1.229149,0.24109 -2.59474,0.0775 -3.798319,-0.18733 -0.827879,-0.2973 -1.523484,-0.46831 -2.224217,-1.04179 -1.672537,-1.3688 -2.486509,-3.58677 -3.782846,-5.25519 -1.63508,-2.9392 -3.339134,-5.8421 -4.64716,-8.94628 -1.007763,-1.98603 -2.076294,-3.94731 -2.892925,-6.0228 -1.044549,-2.44628 -2.260415,-4.81563 -3.572814,-7.12862 -1.099365,-2.22401 -2.305413,-4.393343 -3.32055,-6.659251 0,0 -9.716662,5.631731 -9.716662,5.631731 z" />
    <path
       style="fill:#000000;fill-opacity:1;fill-rule:nonzero;stroke:none;stroke-width:0.264583"
       id="path14"
       d="m 166.8693,86.008987 c 1.11397,6.050274 1.18718,12.223522 1.16409,18.355143 -0.19257,5.24394 -0.0527,10.49134 0.044,15.73557 0.065,2.76205 0.10094,5.52441 0.0929,8.28719 0.1266,2.54735 0.75129,5.01021 1.38311,7.46827 0.77677,3.1851 1.77987,5.87321 4.57909,7.73973 0.93504,0.56304 1.93205,0.69693 2.99119,0.78362 0,0 9.03033,-6.53888 9.03033,-6.53888 v 0 c -0.9342,0.0522 -1.81518,0.13517 -2.69212,-0.28562 -2.66734,-1.37141 -3.63329,-4.10761 -4.25102,-6.90765 -0.52858,-2.40722 -0.99332,-4.83716 -1.16187,-7.30008 -0.0399,-2.75702 -0.0585,-5.51526 -0.19865,-8.26959 -0.26998,-5.15854 -0.55108,-10.32207 -0.42827,-15.490033 0.0435,-6.280197 -0.0382,-12.557979 -0.72733,-18.808678 0,0 -9.82548,5.231008 -9.82548,5.231008 z" />
    <path
       style="fill:#000000;fill-opacity:1;fill-rule:nonzero;stroke:none;stroke-width:0.264583"
       id="path16"
       d="m 178.04828,61.96349 c 1.51029,-1.03105 1.32294,-2.097008 -0.30456,-2.879373 -0.62032,-0.138393 -1.41728,-0.287825 -2.01742,0.04941 -8.63435,4.851821 -7.95057,3.314523 -11.38981,7.367924 -1.57726,1.562848 -2.29877,3.557889 -2.74409,5.681916 0.0431,1.922256 1.3904,3.000674 3.2242,2.885684 4.276,-1.228331 8.10637,-4.377246 11.70063,-6.468822 0,0 -10.40992,4.040981 -10.40992,4.040981 v 0 c 15.68066,-9.007475 10.96398,-6.097106 7.59817,-4.381958 -1.07805,0.569476 -2.20046,0.741392 -2.06833,-0.904007 0.52962,-1.997609 1.45263,-3.719372 2.96085,-5.165902 0.23412,-0.243967 0.45515,-0.501213 0.70236,-0.731901 0.21211,-0.197924 0.92825,-0.689837 0.67317,-0.551654 -18.41928,9.978078 -10.98095,5.488811 -7.51886,4.496586 0.65465,0.05169 0.7354,-0.283289 0.37678,-0.253108 -0.4149,0.03492 -0.80214,0.901165 -1.2612,0.856602 0,0 10.47803,-4.042373 10.47803,-4.042373 z" />
  </g>
</svg>
